<svg width="100%" height="100%" viewBox="0 0 88 32" fill="#15152C" xmlns="http://www.w3.org/2000/svg">
<path d="M36.0938 6.47337L39.4697 12.0659H39.8279L43.2231 6.45411V13.9821H46.7782V0.00265503H43.2231L39.6488 5.97459L36.0938 0.00265503H32.5195V13.9821H36.0938V6.47337Z" />
<path d="M58.2617 12.4049L55.866 10.7275C55.6237 10.9577 55.3385 11.138 55.0266 11.2579C54.7146 11.3779 54.3821 11.4352 54.048 11.4266C52.8925 11.4266 52.1434 11.0202 51.8122 10.2075H58.7027C58.7975 9.80167 58.8441 9.38602 58.8414 8.96924C58.8414 7.46454 58.3554 6.21341 57.3835 5.21584C56.4116 4.21827 55.1804 3.71884 53.6898 3.71756C52.1492 3.71756 50.8775 4.22341 49.8748 5.2351C49.3827 5.73018 48.9962 6.31997 48.7387 6.96877C48.4811 7.61757 48.3579 8.31188 48.3765 9.00968C48.3765 10.5272 48.8856 11.7822 49.9037 12.7746C50.9218 13.7671 52.2769 14.2633 53.9691 14.2633C55.8461 14.2633 57.277 13.6438 58.2617 12.4049ZM53.7361 6.51383C54.7221 6.51383 55.348 6.97988 55.6137 7.91197H51.7717C52.0542 6.97988 52.709 6.51383 53.7361 6.51383Z" />
<path d="M62.0171 13.4332C62.8221 14.0405 64.2171 14.2235 66.2019 13.9821V10.9798C65.4547 11.0202 64.9232 10.9798 64.6035 10.8796C64.2838 10.7795 64.124 10.4945 64.124 10.0611V7.17243H66.2019V3.99677H64.1144V1.2005L60.8 2.2V3.99677H59.3018V7.17243H60.8V10.1478C60.8 11.7295 61.2057 12.8247 62.0171 13.4332Z" />
<path d="M74.6003 13.0635V13.9821H77.9147V3.99677H74.6003V4.91538C73.9212 4.11553 72.9756 3.71625 71.7636 3.71753C71.1294 3.70712 70.5008 3.83687 69.9225 4.09754C69.3442 4.3582 68.8307 4.74334 68.4185 5.22544C67.5198 6.23071 67.0704 7.4857 67.0704 8.99039C67.0704 10.4951 67.5198 11.7501 68.4185 12.7554C68.8307 13.2375 69.3442 13.6226 69.9225 13.8833C70.5008 14.1439 71.1294 14.2737 71.7636 14.2633C72.9692 14.2633 73.9148 13.8633 74.6003 13.0635ZM72.5031 11.1723C72.2224 11.1837 71.9424 11.1363 71.6811 11.0332C71.4198 10.9301 71.1829 10.7735 70.9856 10.5734C70.7892 10.3622 70.6369 10.1139 70.5377 9.84306C70.4385 9.57222 70.3943 9.28429 70.4079 8.99617C70.3943 8.70805 70.4385 8.42013 70.5377 8.14928C70.6369 7.87844 70.7892 7.63014 70.9856 7.41893C71.3966 7.0329 71.9393 6.81801 72.5031 6.81801C73.067 6.81801 73.6097 7.0329 74.0207 7.41893C74.2167 7.63044 74.3687 7.8788 74.4679 8.14956C74.567 8.42033 74.6114 8.70811 74.5984 8.99617C74.6114 9.28424 74.567 9.57201 74.4679 9.84278C74.3687 10.1135 74.2167 10.3619 74.0207 10.5734C73.8233 10.7734 73.5864 10.9299 73.3251 11.033C73.0638 11.1362 72.7838 11.1836 72.5031 11.1723Z" />
<path d="M32.5195 30.8156H36.0938V26.0223H41.0065V22.5674H36.0938V20.2911H41.1066V16.8362H32.5195V30.8156Z" />
<path d="M47.5735 20.551C46.874 20.5385 46.1791 20.6673 45.5305 20.9298C44.882 21.1922 44.293 21.5828 43.799 22.0782C43.3051 22.5688 42.9132 23.1522 42.6458 23.7949C42.3783 24.4376 42.2407 25.1268 42.2407 25.8229C42.2407 26.519 42.3783 27.2083 42.6458 27.8509C42.9132 28.4936 43.3051 29.077 43.799 29.5677C44.8132 30.5472 46.1683 31.0947 47.5784 31.0947C48.9884 31.0947 50.3435 30.5472 51.3578 29.5677C52.3495 28.5737 52.9064 27.227 52.9064 25.8229C52.9064 24.4189 52.3495 23.0721 51.3578 22.0782C50.8632 21.5808 50.2728 21.189 49.6223 20.9265C48.9718 20.6639 48.2748 20.5362 47.5735 20.551ZM49.0217 27.3202C48.8334 27.5114 48.6075 27.6615 48.3582 27.7609C48.1089 27.8603 47.8418 27.907 47.5735 27.898C47.3086 27.9057 47.045 27.8583 46.7994 27.7589C46.5537 27.6594 46.3314 27.5101 46.1465 27.3202C45.7793 26.9079 45.5764 26.3751 45.5764 25.8229C45.5764 25.2708 45.7793 24.7379 46.1465 24.3256C46.3314 24.1358 46.5537 23.9864 46.7994 23.887C47.045 23.7875 47.3086 23.7401 47.5735 23.7479C47.8418 23.7388 48.1089 23.7855 48.3582 23.8849C48.6075 23.9844 48.8334 24.1344 49.0217 24.3256C49.389 24.7379 49.5919 25.2708 49.5919 25.8229C49.5919 26.3751 49.389 26.9079 49.0217 27.3202Z" />
<path d="M57.684 22.6867V20.8303H54.3678V30.8156H57.684V26.6809C57.684 25.7822 57.9935 25.13 58.6123 24.7242C59.2228 24.3269 59.9616 24.1768 60.6787 24.3044V20.63C60.0135 20.6219 59.3606 20.8094 58.801 21.1692C58.2514 21.5169 57.8526 22.0586 57.684 22.6867Z" />
<path d="M66.51 20.551C64.9693 20.551 63.6983 21.0569 62.6969 22.0686C62.2046 22.5635 61.818 23.1533 61.5604 23.8021C61.3029 24.4509 61.1798 25.1453 61.1986 25.8431C61.1986 27.3607 61.7076 28.6157 62.7258 29.6081C63.7439 30.6005 65.0984 31.0961 66.7892 31.0948C68.6675 31.0948 70.099 30.476 71.0838 29.2384L68.6881 27.561C68.1986 28.0256 67.5448 28.277 66.8701 28.26C65.7146 28.26 64.9655 27.8537 64.6342 27.041H71.5228C71.6192 26.6354 71.6664 26.2196 71.6634 25.8027C71.6634 24.298 71.1775 23.0462 70.2056 22.0474C69.2337 21.0485 68.0018 20.5497 66.51 20.551ZM64.5938 24.7435C64.8724 23.8127 65.5246 23.3473 66.5504 23.3473C67.5364 23.3473 68.1623 23.8127 68.4281 24.7435H64.5938Z" />
<path d="M79.0624 24.9939C78.5896 24.8047 78.102 24.6546 77.6046 24.5452C77.1854 24.4571 76.7719 24.3439 76.3663 24.2062C76.0273 24.0849 75.8579 23.9328 75.8579 23.7459C75.8579 23.4263 76.1044 23.2664 76.5974 23.2664C77.1289 23.2664 77.541 23.5527 77.8337 24.1253L80.63 22.8678C79.8597 21.3271 78.4885 20.5568 76.5165 20.5568C75.5001 20.5295 74.503 20.8382 73.6798 21.435C72.894 22.0204 72.5018 22.846 72.5031 23.9116C72.4831 24.5004 72.6585 25.0794 73.0019 25.5581C73.3129 25.9834 73.7336 26.3163 74.219 26.521C74.6861 26.7156 75.1669 26.8752 75.6576 26.9986C76.1377 27.1193 76.5441 27.2394 76.8766 27.3588C77.2079 27.4782 77.3754 27.6322 77.3754 27.819C77.3754 28.1772 77.075 28.3583 76.476 28.3583C75.6903 28.3583 75.171 27.9917 74.9181 27.2586L72.0294 28.7165C72.7753 30.3008 74.2665 31.0929 76.503 31.0929C77.5739 31.1225 78.6301 30.8387 79.5419 30.2764C80.3931 29.732 80.8194 28.8866 80.8207 27.7401C80.8445 27.1143 80.6654 26.4976 80.3103 25.9818C79.9987 25.5387 79.5652 25.1955 79.0624 24.9939Z" />
<path d="M88 24.0059V20.8303H85.924V18.034L82.6077 19.0335V20.8303H81.1094V24.0059H82.6077V26.9813C82.6077 28.5669 83.0102 29.662 83.8152 30.2667C84.6202 30.8714 86.0151 31.0544 88 30.8156V27.821C87.254 27.8595 86.7212 27.8261 86.4016 27.7208C86.0838 27.613 85.924 27.3357 85.924 26.9023V24.0136L88 24.0059Z" />
<path d="M26.6033 1.12926C26.326 0.247235 25.7367 -0.0897814 24.8547 0.0238413C24.3099 0.107438 23.7831 0.28259 23.2967 0.541884C20.7296 1.82062 18.8019 3.76569 17.6869 6.52152C17.3383 7.40546 17.0687 8.3337 16.7605 9.24654C16.2838 10.7149 15.9263 12.2193 15.6917 13.7452C15.6571 13.9648 15.6359 14.1862 15.6031 14.4327C14.9557 14.1369 14.2529 13.9818 13.5411 13.9778C12.8294 13.9738 12.1249 14.121 11.4742 14.4096C11.4579 14.354 11.4451 14.2974 11.4357 14.2402C11.2776 12.9839 11.0246 11.7414 10.6788 10.5233C10.4343 9.61629 10.1608 8.71502 9.85267 7.82722C9.59643 7.03575 9.28431 6.26349 8.91865 5.51625C7.78514 3.31939 5.95702 1.55898 3.71897 0.509145C3.19856 0.230062 2.6276 0.0578567 2.03966 0.00265739C1.35407 -0.0320072 0.866845 0.272271 0.583751 0.927045C0.526951 1.05202 0.478694 1.1807 0.439315 1.31221C0.222581 2.1137 0.0934382 2.93634 0.0541533 3.76569C-0.0853134 5.26284 0.0451433 6.77288 0.439315 8.22393C0.969451 10.1078 1.96251 11.8291 3.32803 13.231C4.49892 14.4347 5.84313 15.4207 7.21431 16.372C7.38378 16.4895 7.56288 16.5858 7.75161 16.6994C7.17387 17.5795 7.09491 17.7374 6.98129 18.4172C6.93892 18.6849 6.91388 18.9565 6.89077 19.228C6.81374 20.0734 6.5345 20.811 5.89898 21.3772C5.7064 21.5486 5.54078 21.7624 5.3559 21.9376C4.14457 23.1509 3.83644 24.6607 4.20042 26.2957C4.47776 27.5471 5.23943 28.6377 6.31881 29.3289C7.33267 29.985 8.45884 30.4485 9.64083 30.6962C11.8684 31.1682 14.1631 31.2334 16.4139 30.8888C17.7903 30.6629 19.1214 30.2168 20.356 29.5677C21.1263 29.1825 21.6482 28.547 22.1335 27.8595C22.5878 27.2387 22.8659 26.5068 22.9385 25.7411C23.0656 24.2601 22.7094 22.9641 21.6521 21.9203C21.3844 21.6545 21.1321 21.3714 20.8702 21.1018C20.5697 20.8028 20.3629 20.4227 20.2751 20.008C20.193 19.5915 20.132 19.1711 20.0922 18.7485C20.0457 18.1293 19.8407 17.5324 19.4971 17.0152C19.4355 16.9247 19.37 16.8381 19.3045 16.7495C19.3197 16.7314 19.3365 16.7146 19.3546 16.6994C20.1827 16.1217 21.0224 15.5439 21.8331 14.945C22.8993 14.1777 23.8518 13.2635 24.6621 12.2296C26.0281 10.4742 26.8681 8.36737 27.0848 6.15369C27.1777 5.13973 27.1499 4.11832 27.002 3.11091C26.9249 2.44036 26.7915 1.77747 26.6033 1.12926Z" />
</svg>
