<svg width="100%" height="100%" viewBox="0 0 25 25" fill="#1C1B1F" xmlns="http://www.w3.org/2000/svg">
<mask id="mask0_5020_68" style="mask-type:alpha" maskUnits="userSpaceOnUse" x="0" y="0" width="25" height="25">
<rect x="0.675537" y="0.702148" width="24" height="24" fill="#D9D9D9"/>
</mask>
<g mask="url(#mask0_5020_68)">
<path d="M16.1755 11.7021C16.5922 11.7021 16.9464 11.5563 17.238 11.2646C17.5297 10.973 17.6755 10.6188 17.6755 10.2021C17.6755 9.78548 17.5297 9.43132 17.238 9.13965C16.9464 8.84798 16.5922 8.70215 16.1755 8.70215C15.7589 8.70215 15.4047 8.84798 15.113 9.13965C14.8214 9.43132 14.6755 9.78548 14.6755 10.2021C14.6755 10.6188 14.8214 10.973 15.113 11.2646C15.4047 11.5563 15.7589 11.7021 16.1755 11.7021ZM9.17554 11.7021C9.5922 11.7021 9.94637 11.5563 10.238 11.2646C10.5297 10.973 10.6755 10.6188 10.6755 10.2021C10.6755 9.78548 10.5297 9.43132 10.238 9.13965C9.94637 8.84798 9.5922 8.70215 9.17554 8.70215C8.75887 8.70215 8.4047 8.84798 8.11304 9.13965C7.82137 9.43132 7.67554 9.78548 7.67554 10.2021C7.67554 10.6188 7.82137 10.973 8.11304 11.2646C8.4047 11.5563 8.75887 11.7021 9.17554 11.7021ZM12.6755 14.2021C11.5422 14.2021 10.513 14.523 9.58804 15.1646C8.66304 15.8063 7.9922 16.6521 7.57554 17.7021H9.22554C9.5922 17.0855 10.0797 16.598 10.688 16.2396C11.2964 15.8813 11.9589 15.7021 12.6755 15.7021C13.3922 15.7021 14.0547 15.8813 14.663 16.2396C15.2714 16.598 15.7589 17.0855 16.1255 17.7021H17.7755C17.3589 16.6521 16.688 15.8063 15.763 15.1646C14.838 14.523 13.8089 14.2021 12.6755 14.2021ZM12.6755 22.7021C11.2922 22.7021 9.9922 22.4396 8.77554 21.9146C7.55887 21.3896 6.50054 20.6771 5.60054 19.7771C4.70054 18.8771 3.98804 17.8188 3.46304 16.6021C2.93804 15.3855 2.67554 14.0855 2.67554 12.7021C2.67554 11.3188 2.93804 10.0188 3.46304 8.80215C3.98804 7.58548 4.70054 6.52715 5.60054 5.62715C6.50054 4.72715 7.55887 4.01465 8.77554 3.48965C9.9922 2.96465 11.2922 2.70215 12.6755 2.70215C14.0589 2.70215 15.3589 2.96465 16.5755 3.48965C17.7922 4.01465 18.8505 4.72715 19.7505 5.62715C20.6505 6.52715 21.363 7.58548 21.888 8.80215C22.413 10.0188 22.6755 11.3188 22.6755 12.7021C22.6755 14.0855 22.413 15.3855 21.888 16.6021C21.363 17.8188 20.6505 18.8771 19.7505 19.7771C18.8505 20.6771 17.7922 21.3896 16.5755 21.9146C15.3589 22.4396 14.0589 22.7021 12.6755 22.7021Z" />
</g>
</svg>
