<svg width="100%" height="100%" viewBox="0 0 24 24" fill="#15152C" xmlns="http://www.w3.org/2000/svg">
<mask id="mask0_4983_9" style="mask-type:alpha" maskUnits="userSpaceOnUse" x="0" y="0" width="24" height="24">
<rect width="24" height="24" fill="#D9D9D9"/>
</mask>
<g mask="url(#mask0_4983_9)">
<path d="M18.7042 3.65345C18.551 3.14306 18.2252 2.94805 17.7377 3.0138C17.4366 3.06217 17.1454 3.16352 16.8766 3.31357C15.4577 4.05352 14.3922 5.17905 13.7759 6.77374C13.5832 7.28524 13.4342 7.82238 13.2639 8.3506C13.0004 9.20027 12.8028 10.0708 12.6731 10.9538C12.654 11.0808 12.6423 11.209 12.6242 11.3516C12.2664 11.1804 11.8779 11.0907 11.4845 11.0884C11.0911 11.0861 10.7017 11.1713 10.342 11.3383C10.333 11.3061 10.3259 11.2733 10.3207 11.2402C10.2334 10.5133 10.0935 9.79428 9.90242 9.08944C9.76724 8.56456 9.61609 8.04303 9.44578 7.52929C9.30415 7.07131 9.13163 6.62443 8.92953 6.19203C8.30301 4.92079 7.29257 3.90212 6.05555 3.29462C5.76791 3.13313 5.45233 3.03348 5.12736 3.00154C4.74843 2.98148 4.47912 3.15755 4.32265 3.53644C4.29126 3.60876 4.26458 3.68322 4.24282 3.75932C4.12303 4.22311 4.05165 4.69914 4.02993 5.17905C3.95285 6.0454 4.02495 6.91919 4.24282 7.75886C4.53584 8.84898 5.08472 9.84503 5.83947 10.6563C6.48665 11.3528 7.22962 11.9233 7.9875 12.4738C8.08117 12.5418 8.18016 12.5975 8.28448 12.6633C7.96515 13.1726 7.92151 13.2639 7.8587 13.6573C7.83529 13.8122 7.82145 13.9693 7.80868 14.1265C7.7661 14.6157 7.61176 15.0425 7.26049 15.3701C7.15405 15.4693 7.06251 15.593 6.96032 15.6944C6.29079 16.3965 6.12048 17.2702 6.32166 18.2163C6.47495 18.9404 6.89595 19.5715 7.49254 19.9714C8.05292 20.3511 8.67538 20.6193 9.32869 20.7626C10.5599 21.0358 11.8282 21.0735 13.0723 20.8741C13.8331 20.7434 14.5688 20.4852 15.2512 20.1096C15.677 19.8867 15.9654 19.519 16.2337 19.1212C16.4848 18.762 16.6385 18.3384 16.6786 17.8953C16.7489 17.0384 16.5519 16.2884 15.9676 15.6844C15.8196 15.5306 15.6802 15.3668 15.5354 15.2108C15.3693 15.0377 15.255 14.8178 15.2065 14.5778C15.1611 14.3368 15.1274 14.0935 15.1054 13.849C15.0797 13.4907 14.9664 13.1453 14.7765 12.846C14.7424 12.7937 14.7062 12.7435 14.67 12.6923C14.6784 12.6818 14.6877 12.6721 14.6977 12.6633C15.1554 12.329 15.6195 11.9946 16.0676 11.6481C16.657 11.2041 17.1834 10.6751 17.6313 10.0768C18.3863 9.06099 18.8506 7.84186 18.9703 6.56089C19.0217 5.97415 19.0063 5.38311 18.9246 4.80016C18.8819 4.41214 18.8082 4.02855 18.7042 3.65345V3.65345Z"/>
</g>
</svg>
