<svg width="100%" height="100%" viewBox="0 0 25 25" fill="#15152C" xmlns="http://www.w3.org/2000/svg">
<g mask="url(#mask0_4983_20)">
<path d="M2.01837 20.6464L5.46837 13.7464C5.63504 13.4131 5.87254 13.1464 6.18087 12.9464C6.4892 12.7464 6.83504 12.6464 7.21837 12.6464C7.61837 12.6464 7.98504 12.7506 8.31837 12.9589C8.65171 13.1673 8.89337 13.4631 9.04337 13.8464L9.71837 15.4964C9.75171 15.5964 9.82671 15.6423 9.94337 15.6339C10.06 15.6256 10.135 15.5714 10.1684 15.4714L12.3184 8.29642C12.5517 7.49642 12.9975 6.85476 13.6559 6.37142C14.3142 5.88809 15.06 5.64642 15.8934 5.64642C16.71 5.64642 17.4392 5.88392 18.0809 6.35892C18.7225 6.83392 19.1684 7.45476 19.4184 8.22142L23.7434 20.6464H2.01837ZM6.86837 10.6464C6.03504 10.6464 5.32671 10.3506 4.74337 9.75892C4.16004 9.16726 3.86837 8.46309 3.86837 7.64642C3.86837 6.81309 4.16004 6.10476 4.74337 5.52142C5.32671 4.93809 6.03504 4.64642 6.86837 4.64642C7.7017 4.64642 8.41004 4.93809 8.99337 5.52142C9.5767 6.10476 9.86837 6.81309 9.86837 7.64642C9.86837 8.46309 9.5767 9.16726 8.99337 9.75892C8.41004 10.3506 7.7017 10.6464 6.86837 10.6464Z"/>
</g>
</svg>
